HIERARCHY
ROOT Hips
{
	OFFSET -0.001795 -0.223333 0.028219
	CHANNELS 6 Xposition Yposition Zposition Zrotation Yrotation Xrotation 
	JOINT LeftUpLeg
	{
		OFFSET 0.069520 -0.091406 -0.006815
		CHANNELS 3 Zrotation Yrotation Xrotation
		JOINT LeftLeg
		{
			OFFSET 0.034277 -0.375199 -0.004496
			CHANNELS 3 Zrotation Yrotation Xrotation
			JOINT LeftFoot
			{
				OFFSET -0.013596 -0.397961 -0.043693
				CHANNELS 3 Zrotation Yrotation Xrotation
				JOINT LeftToe
				{
					OFFSET 0.026358 -0.055791 0.119288
					CHANNELS 3 Zrotation Yrotation Xrotation
					End Site
					{
						OFFSET 0.000000 0.000000 0.000000
					}
				}
			}
		}
	}
	JOINT RightUpLeg
	{
		OFFSET -0.067670 -0.090522 -0.004320
		CHANNELS 3 Zrotation Yrotation Xrotation
		JOINT RightLeg
		{
			OFFSET -0.038290 -0.382569 -0.008850
			CHANNELS 3 Zrotation Yrotation Xrotation
			JOINT RightFoot
			{
				OFFSET 0.015774 -0.398415 -0.042312
				CHANNELS 3 Zrotation Yrotation Xrotation
				JOINT RightToe
				{
					OFFSET -0.025372 -0.048144 0.123348
					CHANNELS 3 Zrotation Yrotation Xrotation
					End Site
					{
						OFFSET 0.000000 0.000000 0.000000
					}
				}
			}
		}
	}
	JOINT Spine
	{
		OFFSET -0.002533 0.108963 -0.026696
		CHANNELS 3 Zrotation Yrotation Xrotation
		JOINT Spine1
		{
			OFFSET 0.005487 0.135180 0.001092
			CHANNELS 3 Zrotation Yrotation Xrotation
			JOINT Spine2
			{
				OFFSET 0.001457 0.052922 0.025425
				CHANNELS 3 Zrotation Yrotation Xrotation
				JOINT Neck
				{
					OFFSET -0.002778 0.213870 -0.042857
					CHANNELS 3 Zrotation Yrotation Xrotation
					JOINT Head
					{
						OFFSET 0.005152 0.064970 0.051349
						CHANNELS 3 Zrotation Yrotation Xrotation
						End Site
						{
							OFFSET 0.000000 0.000000 0.000000
						}
					}
				}
				JOINT LeftShoulder
				{
					OFFSET 0.078845 0.121749 -0.034090
					CHANNELS 3 Zrotation Yrotation Xrotation
					JOINT LeftArm
					{
						OFFSET 0.090977 0.030469 -0.008868
						CHANNELS 3 Zrotation Yrotation Xrotation
						JOINT LeftForeArm
						{
							OFFSET 0.259612 -0.012772 -0.027456
							CHANNELS 3 Zrotation Yrotation Xrotation
							JOINT LeftHand
							{
								OFFSET 0.249234 0.008986 -0.001171
								CHANNELS 3 Zrotation Yrotation Xrotation
								End Site
								{
									OFFSET 0.000000 0.000000 0.000000
								}
							}
						}
					}
				}
				JOINT RightShoulder
				{
					OFFSET -0.081759 0.118833 -0.038615
					CHANNELS 3 Zrotation Yrotation Xrotation
					JOINT RightArm
					{
						OFFSET -0.096012 0.032551 -0.009143
						CHANNELS 3 Zrotation Yrotation Xrotation
						JOINT RightForeArm
						{
							OFFSET -0.253742 -0.013329 -0.021401
							CHANNELS 3 Zrotation Yrotation Xrotation
							JOINT RightHand
							{
								OFFSET -0.255298 0.007772 -0.005559
								CHANNELS 3 Zrotation Yrotation Xrotation
								End Site
								{
									OFFSET 0.000000 0.000000 0.000000
								}
							}
						}
					}
				}
			}
		}
	}
}
MOTION
Frames: 10
Frame Time: 0.050000
0.000000 0.716408 0.000000 -1.182951 -14.943682 8.445457 12.790008 5.339990 -51.902170 -7.592497 11.605209 81.647650 8.486196 15.111341 -18.498774 0.000000 0.000000 0.000000 -12.848379 3.664513 -51.612736 22.337986 -12.326470 80.336144 -9.939575 -28.474563 -15.638945 0.000000 0.000000 0.000000 3.974217 -1.077112 35.226164 -1.404786 0.576506 -4.516631 -5.550556 7.439669 4.288429 11.609030 -4.169201 -23.159584 0.000000 0.000000 0.000000 -13.530002 -31.100072 13.854903 -36.799584 -35.138225 5.981858 4.334786 -41.620637 -0.016454 0.000000 0.000000 0.000000 8.476003 21.429350 9.212787 50.539843 23.770043 5.118636 0.571446 44.256308 2.112401 0.000000 0.000000 0.000000 
-0.000386 0.752873 -0.000280 -1.051019 -13.494910 8.740654 10.592946 3.285650 -48.889598 -6.510800 8.726989 73.566245 7.819500 14.210229 -15.256016 0.000000 0.000000 0.000000 -12.741860 3.256994 -51.021228 22.545875 -12.514872 76.823449 -9.920697 -25.873589 -6.233321 0.000000 0.000000 0.000000 4.491833 -1.464527 32.575045 -1.247045 0.525493 -4.262871 -5.546191 8.240897 2.393898 12.676555 -4.574852 -22.795705 0.000000 0.000000 0.000000 -11.476631 -30.785472 12.892724 -37.043383 -36.677721 6.700543 1.597328 -51.386418 1.050122 0.000000 0.000000 0.000000 8.878515 18.238428 7.993017 49.775165 21.165890 4.089623 7.009836 52.572817 5.945207 0.000000 0.000000 0.000000 
-0.001093 0.790392 0.000821 -0.571488 -13.445596 7.563546 10.665020 2.566795 -42.595151 -8.138243 8.909500 63.890208 7.462948 13.014541 -19.580461 0.000000 0.000000 0.000000 -9.951979 3.561688 -44.824325 18.273195 -7.024907 70.228427 -9.098716 -23.586979 -7.048650 0.000000 0.000000 0.000000 3.677013 -1.195214 29.200727 -0.834051 0.345177 -4.338632 -6.247769 9.845537 2.739751 12.508358 -4.829329 -20.666625 0.000000 0.000000 0.000000 -10.994304 -30.853110 12.437996 -35.444271 -35.757720 6.018254 -1.233053 -64.195029 2.655111 0.000000 0.000000 0.000000 11.160646 17.700620 8.328154 49.199382 20.987028 3.769821 11.222284 60.410887 9.994748 0.000000 0.000000 0.000000 
-0.001772 0.827913 0.002231 -0.143807 -14.237938 7.296089 9.329399 1.559859 -36.873968 -7.262656 7.045851 54.312284 6.807881 12.179488 -17.798728 0.000000 0.000000 0.000000 -8.034923 3.783683 -41.069182 14.674835 -3.275776 63.365024 -8.465559 -21.486522 -7.296243 0.000000 0.000000 0.000000 3.555501 -1.080874 25.200437 -0.531676 0.194696 -5.833895 -5.835849 11.418691 4.920873 12.925682 -4.371564 -24.047576 0.000000 0.000000 0.000000 -2.963257 -26.984224 9.451516 -39.101211 -38.831363 7.446790 -10.923633 -80.864943 11.463985 0.000000 0.000000 0.000000 6.393912 15.378794 6.632463 53.410843 22.381984 5.019943 23.151249 72.751713 22.418532 0.000000 0.000000 0.000000 
-0.002510 0.862369 0.003941 0.336575 -13.402591 7.515991 7.321971 0.385337 -31.547625 -5.947707 4.501232 43.601533 6.196302 11.597295 -14.203980 0.000000 0.000000 0.000000 -6.460373 3.275680 -34.810935 9.860489 -0.249562 52.782794 -7.189092 -16.883353 -8.701559 0.000000 0.000000 0.000000 4.281391 -1.199063 19.767943 -1.461913 0.605670 -4.193303 -4.494894 9.787598 5.346000 11.223792 -4.025897 -22.233029 0.000000 0.000000 0.000000 0.903222 -24.405758 8.202337 -36.596125 -38.846764 6.783407 -176.536080 -82.788920 179.720200 0.000000 0.000000 0.000000 3.125350 15.416666 6.010487 56.238230 23.590422 6.119908 53.890458 83.071382 54.477878 0.000000 0.000000 0.000000 
-0.002725 0.890454 0.005698 0.322247 -12.363781 8.974681 5.582779 -0.383115 -26.749409 -3.965171 2.203303 33.226450 5.726330 11.092075 -11.049601 0.000000 0.000000 0.000000 -5.892359 2.791699 -30.520238 7.216278 0.481309 43.067198 -6.894766 -15.871411 -7.633739 0.000000 0.000000 0.000000 4.779186 -1.187414 15.497672 -0.805368 0.324626 -5.547981 -3.405921 11.139921 7.104156 10.249241 -3.556458 -21.347256 0.000000 0.000000 0.000000 3.169613 -21.765586 7.069695 -33.410184 -40.924987 6.239197 179.798349 -66.607998 -175.312590 0.000000 0.000000 0.000000 0.840231 12.756762 4.824163 57.608664 23.248010 6.282783 135.713205 79.841799 136.605557 0.000000 0.000000 0.000000 
-0.002424 0.913744 0.006470 0.243768 -10.396639 8.962689 4.733853 -0.730122 -22.540108 -2.912489 0.988341 24.736135 4.256692 7.968649 -6.558035 0.000000 0.000000 0.000000 -4.706520 2.369201 -26.046655 4.188031 1.063227 35.344343 -5.819902 -13.376492 -4.857402 0.000000 0.000000 0.000000 5.600439 -1.116926 11.511875 -0.195008 0.097509 -5.952847 -2.674109 11.293479 7.695351 10.530597 -3.881920 -20.098592 0.000000 0.000000 0.000000 6.375047 -19.423786 6.168176 -29.041675 -42.735751 5.227268 171.552588 -56.772022 -159.709159 0.000000 0.000000 0.000000 0.302814 11.378655 4.266981 56.087996 24.857646 6.934023 157.428272 77.973660 162.097307 0.000000 0.000000 0.000000 
-0.001245 0.930359 0.006234 0.176181 -8.360696 9.899333 4.283333 -0.896410 -20.683863 -2.362722 0.462979 19.285203 2.995614 5.863455 -2.215956 0.000000 0.000000 0.000000 -3.543039 2.079536 -22.539690 1.348237 1.345741 27.528069 -5.443180 -13.050835 -2.453457 0.000000 0.000000 0.000000 5.481532 -0.892951 8.054782 0.801028 -0.275596 -5.808756 -1.794203 11.250367 7.673218 9.629709 -3.437772 -19.144238 0.000000 0.000000 0.000000 9.848579 -17.893532 5.696811 -21.741133 -45.675483 3.305434 160.089202 -51.595791 -135.751225 0.000000 0.000000 0.000000 -1.257905 11.215490 4.073560 55.394538 26.243640 7.721622 174.728683 76.306192 -175.711986 0.000000 0.000000 0.000000 
0.000339 0.940063 0.005920 0.256081 -6.400345 9.518412 4.012018 -0.967445 -18.911418 -1.821438 0.166347 16.285425 2.402553 5.063813 -0.207033 0.000000 0.000000 0.000000 -2.711644 1.863524 -20.080719 -0.340127 1.415028 23.025456 -4.886075 -12.393693 0.199850 0.000000 0.000000 0.000000 5.640964 -0.791664 6.533616 0.684502 -0.203912 -5.954891 -0.297392 11.250062 7.606331 9.302258 -3.251991 -18.662842 0.000000 0.000000 0.000000 13.182291 -17.401654 5.583660 -11.973410 -47.523490 -0.009717 149.159951 -48.283524 -113.568530 0.000000 0.000000 0.000000 -1.802468 11.043798 3.953655 51.844238 27.310469 7.594235 -172.011156 77.871693 -158.901205 0.000000 0.000000 0.000000 
0.002290 0.944762 0.006260 0.386296 -5.006204 9.573770 3.356094 -1.075141 -18.091664 -0.515519 -0.210439 14.009629 1.897213 4.530158 1.596086 0.000000 0.000000 0.000000 -1.981692 1.671164 -17.694172 -2.198689 1.505114 18.321806 -4.588477 -12.064543 1.767463 0.000000 0.000000 0.000000 5.243197 -0.590762 4.446012 1.442708 -0.499863 -5.615735 0.209245 11.300841 7.228692 8.874976 -2.996264 -18.202863 0.000000 0.000000 0.000000 16.226084 -17.409176 5.637260 -4.301918 -46.661513 -2.787643 143.666434 -46.848648 -103.641679 0.000000 0.000000 0.000000 -1.469383 12.237911 4.443428 49.359698 27.787528 7.295786 -148.216985 82.410942 -133.327289 0.000000 0.000000 0.000000 
